<svg width="17" height="23" viewBox="0 0 17 23" fill="none" xmlns="http://www.w3.org/2000/svg">
<g clip-path="url(#clip0)">
<path d="M8.49999 0C3.84134 0 -8.42707e-06 3.70205 -8.42707e-06 8.19178C-0.0817392 9.76712 0.653838 11.3425 0.653838 11.3425C0.653838 11.3425 1.96153 13.863 3.67788 16.3836C5.39422 18.9041 8.49999 23 8.49999 23C8.49999 23 12.0961 18.5103 13.7308 15.9897C15.2019 13.7055 16.3461 11.4212 16.3461 11.4212C16.7548 10.476 17 9.37329 17 8.27055C17 3.70205 13.2404 0 8.49999 0ZM8.49999 9.92466C7.35576 9.92466 6.37499 9.05822 6.37499 7.87671C6.37499 6.69521 7.35576 5.90753 8.49999 5.90753C9.64422 5.90753 10.625 6.85274 10.625 7.95548C10.625 9.05822 9.64422 9.92466 8.49999 9.92466Z" fill="#272525"/>
</g>
<defs>
<clipPath id="clip0">
<rect width="17" height="23" fill="white"/>
</clipPath>
</defs>
</svg>
