<svg width="182" height="30" viewBox="0 0 182 30" fill="none" xmlns="http://www.w3.org/2000/svg">
<rect x="29" y="1" width="123" height="25" fill="#272525" stroke="#272525" stroke-width="2"/>
<path d="M46.6042 5.9H44.3042V19.355C44.3042 19.654 44.0282 19.93 43.7292 19.93H42.3492C42.0502 19.93 41.7742 19.654 41.7742 19.355V5.9H39.4742V19.7C39.4742 20.965 40.5092 22 41.7742 22H44.3042C45.5692 22 46.6042 20.965 46.6042 19.7V5.9ZM56.6892 5.9H54.3892V19.355C54.3892 19.654 54.1132 19.93 53.8142 19.93H52.4342C52.1352 19.93 51.8592 19.654 51.8592 19.355V5.9H49.5592V19.7C49.5592 20.965 50.5942 22 51.8592 22H54.3892C55.6542 22 56.6892 20.965 56.6892 19.7V5.9ZM66.8661 8.2C66.8661 6.935 65.8311 5.9 64.5661 5.9H59.7361V22H64.5661C65.8311 22 66.8661 20.965 66.8661 19.7V8.2ZM64.5661 19.355C64.5661 19.654 64.2901 19.93 63.9911 19.93H62.0361V7.97H63.9911C64.2901 7.97 64.5661 8.246 64.5661 8.545V19.355ZM72.0313 22V5.9H69.7313V22H72.0313ZM74.6608 11.075C74.6608 12.685 75.7188 13.444 76.9378 14.249L78.9158 15.56C79.1688 15.721 79.4908 16.135 79.4908 16.71V19.355C79.4908 19.654 79.2148 19.93 78.9158 19.93H77.5358C77.2368 19.93 76.9608 19.654 76.9608 19.355V17.4H74.6608V19.7C74.6608 20.965 75.6958 22 76.9608 22H79.4908C80.7558 22 81.7908 20.965 81.7908 19.7V16.365C81.7908 14.755 80.6408 13.835 79.4678 13.099L77.5358 11.88C77.2598 11.719 76.9608 11.305 76.9608 10.73V8.545C76.9608 8.246 77.2368 7.97 77.5358 7.97H78.9158C79.2148 7.97 79.4908 8.246 79.4908 8.545V10.5H81.7908V8.2C81.7908 6.935 80.7558 5.9 79.4908 5.9H76.9608C75.6958 5.9 74.6608 6.935 74.6608 8.2V11.075ZM86.6977 17.4L87.1577 10.5V5.9H84.7657V10.5L85.2257 17.4H86.6977ZM87.1807 19.562H84.7427V22H87.1807V19.562ZM92.5149 24.783H94.8149L101.715 5.9H99.4149L92.5149 24.783ZM106.747 5.9V22H109.047V8.545C109.047 8.246 109.323 7.97 109.622 7.97H111.002C111.301 7.97 111.577 8.246 111.577 8.545V22H113.877V8.2C113.877 6.935 112.842 5.9 111.577 5.9H110.151C109.691 5.9 109.024 6.406 108.817 6.82V5.9H106.747ZM116.922 5.9V22H122.672V19.93H119.222V14.755H122.028V12.685H119.222V7.97H122.672V5.9H116.922ZM134.301 5.9V19.355C134.301 19.654 134.025 19.93 133.726 19.93H132.461C132.162 19.93 131.886 19.654 131.886 19.355V5.9H129.586V19.355C129.586 19.654 129.31 19.93 129.011 19.93H127.746C127.447 19.93 127.171 19.654 127.171 19.355V5.9H124.871V19.7C124.871 20.965 125.906 22 127.171 22H129.356C129.816 22 130.483 21.563 130.69 21.218C130.897 21.563 131.564 22 132.024 22H134.186C135.451 22 136.486 20.965 136.486 19.7V5.9H134.301ZM141.794 17.4L142.254 10.5V5.9H139.862V10.5L140.322 17.4H141.794ZM142.277 19.562H139.839V22H142.277V19.562Z" fill="white"/>
<line x1="162" y1="26" x2="181.636" y2="26" stroke="#272525" stroke-width="2"/>
<line y1="26" x2="19.6364" y2="26" stroke="#272525" stroke-width="2"/>
</svg>
