<svg width="109" height="22" viewBox="0 0 109 22" fill="none" xmlns="http://www.w3.org/2000/svg">
<path d="M31.4317 8.5C31.4317 9.9 32.3517 10.56 33.4117 11.26L35.1317 12.4C35.3517 12.54 35.6317 12.9 35.6317 13.4V15.7C35.6317 15.96 35.3917 16.2 35.1317 16.2H33.9317C33.6717 16.2 33.4317 15.96 33.4317 15.7V14H31.4317V16C31.4317 17.1 32.3317 18 33.4317 18H35.6317C36.7317 18 37.6317 17.1 37.6317 16V13.1C37.6317 11.7 36.6317 10.9 35.6117 10.26L33.9317 9.2C33.6917 9.06 33.4317 8.7 33.4317 8.2V6.3C33.4317 6.04 33.6717 5.8 33.9317 5.8H35.1317C35.3917 5.8 35.6317 6.04 35.6317 6.3V8H37.6317V6C37.6317 4.9 36.7317 4 35.6317 4H33.4317C32.3317 4 31.4317 4.9 31.4317 6V8.5ZM46.1186 6C46.1186 4.9 45.2186 4 44.1186 4H39.9186V18H41.9186V11.7H44.1186C45.2186 11.7 46.1186 10.8 46.1186 9.7V6ZM43.6186 9.9H41.9186V5.8H43.6186C43.8786 5.8 44.1186 6.04 44.1186 6.3V9.4C44.1186 9.66 43.8786 9.9 43.6186 9.9ZM47.985 4V18H52.985V16.2H49.985V11.7H52.425V9.9H49.985V5.8H52.985V4H47.985ZM60.9572 14H58.9572V15.7C58.9572 15.96 58.7172 16.2 58.4572 16.2H57.2572C56.9972 16.2 56.7572 15.96 56.7572 15.7V6.3C56.7572 6.04 56.9972 5.8 57.2572 5.8H58.4572C58.7172 5.8 58.9572 6.04 58.9572 6.3V8H60.9572V6C60.9572 4.9 60.0572 4 58.9572 4H56.7572C55.6572 4 54.7572 4.9 54.7572 6V16C54.7572 17.1 55.6572 18 56.7572 18H58.9572C60.0572 18 60.9572 17.1 60.9572 16V14ZM64.8873 18V4H62.8873V18H64.8873ZM73.7339 18V6C73.7339 4.9 72.8339 4 71.7339 4H69.5339C68.4339 4 67.5339 4.9 67.5339 6V18H69.5339V11.7H71.7339V18H73.7339ZM71.7339 9.9H69.5339V6.3C69.5339 6.04 69.7739 5.8 70.0339 5.8H71.2339C71.4939 5.8 71.7339 6.04 71.7339 6.3V9.9ZM78.3834 16.2V4H76.3834V18H81.3834V16.2H78.3834Z" fill="#272525"/>
<rect x="24" y="1" width="62" height="20" stroke="black" stroke-width="2"/>
<line x1="93" y1="21" x2="109" y2="21" stroke="black" stroke-width="2"/>
<line y1="21" x2="16" y2="21" stroke="black" stroke-width="2"/>
</svg>
