<svg width="30" height="29" viewBox="0 0 30 29" fill="none" xmlns="http://www.w3.org/2000/svg">
<path d="M29.5488 14.3142L15.2654 0.0307617L0.981961 14.3142L15.2654 28.5976L29.5488 14.3142Z" fill="#D45959"/>
<path d="M22.9001 12.1C22.1001 12.2 21.4001 12.7 21.0001 13.1C18.9002 11.8 17.4001 13 16.0001 14C14.0001 15.6 11.8001 17.3 7.00015 12C6.90015 11.9 6.80015 11.8 6.60015 11.8C6.10015 11.8 5.70015 12.2 5.70015 12.7C5.60015 14.3 9.00015 18.5 13.0001 19C13.4001 19.1 13.9002 19.1 14.3001 19.1C17.0001 19.1 18.7001 17.6 21.1002 14.5C21.1002 14.5 21.9001 13.1 23.1001 13C23.8001 12.9 24.5001 13.2 25.2001 13.9L25.9001 13.2C24.9001 12.3 23.9001 11.9 22.9001 12.1ZM13.1002 18.1C10.6002 17.8 8.30015 15.8 7.20015 14.1C7.00015 13.8 6.80015 13.5 6.80015 13.3C11.9001 18.6 14.6001 16.6 16.7001 14.9C18.1001 13.8 19.0001 13.2 20.4001 13.9C17.7001 17.3 16.1002 18.5 13.1002 18.1Z" fill="white"/>
</svg>
