<svg width="138" height="58" viewBox="0 0 138 58" fill="none" xmlns="http://www.w3.org/2000/svg">
<path d="M22.0804 26.8787H0.361084V28.543H22.0804V26.8787Z" fill="#1E1E1C"/>
<path d="M22.1636 34.4513H9.43159V36.1156H22.1636V34.4513Z" fill="#1E1E1C"/>
<path d="M22.1636 19.3061H9.43159V20.9704H22.1636V19.3061Z" fill="#1E1E1C"/>
<path d="M138 46.7673C138 45.6855 137.667 45.2694 136.752 45.1862C136.752 44.6869 136.752 44.1044 136.752 43.6051V43.0226C136.752 42.6065 136.752 42.6065 136.835 42.5233C137.334 42.1904 137.501 41.6079 137.584 41.1918C137.667 40.2764 137.75 39.4443 137.667 38.6121C137.667 38.1961 137.584 37.2807 136.752 36.615C136.752 36.2821 136.752 36.0324 136.752 35.6996C136.752 35.0339 136.752 34.4513 136.752 33.7856C136.752 33.2863 136.502 32.7038 136.086 32.3709C135.337 31.7884 134.588 31.2059 133.756 30.5402C133.34 30.2073 132.924 29.9577 132.591 29.6248C131.01 28.3766 129.429 27.1284 127.848 25.8801C127.848 25.8801 127.764 25.7969 127.764 25.6305C127.099 23.8829 126.516 22.0522 125.851 20.2214C125.351 18.8068 124.852 17.3921 124.353 15.9774C123.77 14.3963 123.271 12.732 122.688 11.1509C122.355 10.0691 121.939 9.07052 121.606 7.98872C121.024 6.24119 120.358 4.49365 119.776 2.74612C119.526 1.91396 119.027 1.5811 118.111 1.5811H101.468C90.2341 1.5811 79 1.5811 67.7659 1.5811C66.9337 1.5811 66.8505 1.41467 66.6841 1.08181C66.5176 0.499295 65.8519 0 65.1862 0C63.4387 0 61.6911 0 59.9436 0C57.6136 0 55.2835 0 52.9535 0C51.9549 0 51.2059 0.416079 50.7899 1.33145C50.7066 1.49788 50.7066 1.5811 50.3738 1.5811C44.3822 1.5811 32.8985 1.5811 29.237 1.5811C28.6545 1.5811 28.1552 1.74753 27.8223 2.16361C27.4894 2.49647 27.323 2.91255 27.323 3.41185C27.4062 7.73907 27.4894 24.0494 27.4894 27.5444C27.0734 27.5444 26.8237 27.7109 26.6573 27.7941C26.158 28.2102 26.158 28.7927 26.158 29.0423C26.158 30.457 26.158 31.7884 26.158 33.1199C26.158 33.4528 26.158 33.952 26.5741 34.3681C26.8237 34.5346 27.0734 34.701 27.4062 34.701C27.4062 35.0339 27.4062 35.4499 27.4062 35.866C27.0734 35.866 26.8237 35.9492 26.6573 36.1157C26.158 36.5317 26.158 37.1143 26.2412 37.3639C26.2412 38.6954 26.2412 40.0268 26.2412 41.4415C26.2412 41.8575 26.2412 42.3568 26.5741 42.6897C26.8237 42.9394 27.1566 43.0226 27.4894 43.0226V43.2722C27.4894 43.9379 27.4894 44.5205 27.4894 45.1862C27.323 45.1862 27.0734 45.1862 26.8237 45.1862H25.5755V51.5938L26.3244 51.677C26.4908 51.677 28.0719 51.677 32.6488 51.677C34.5628 51.677 36.4767 51.677 37.3921 51.677C37.3921 52.2595 37.3921 52.2595 37.3921 52.5924V53.3413C37.3921 53.8406 37.5585 54.1735 37.8082 54.4231C37.9746 54.5896 38.3075 54.756 38.7236 54.756C38.7236 54.756 38.7236 54.756 38.8068 54.756C39.3893 54.756 40.1382 54.3399 40.055 53.2581C40.055 52.7588 40.055 52.426 40.055 52.0931C40.055 51.5106 40.055 51.1777 39.9718 50.0127C39.7222 47.0169 40.6375 44.6037 42.7179 42.7729C45.1312 40.6925 48.4598 40.1932 51.3724 41.5247C52.371 42.024 53.2863 42.6897 54.1185 43.6883C55.6164 45.4358 56.1989 47.3498 56.0325 49.5134V49.6798C55.9492 50.4288 55.9492 51.0113 56.2821 51.4274C56.6982 51.8434 57.1975 51.8434 58.1129 51.8434H103.882V52.2595C103.882 52.5924 103.882 52.5924 103.882 52.7588V53.4245C103.882 53.9238 104.131 54.2567 104.298 54.4231C104.464 54.5896 104.797 54.756 105.296 54.756C106.045 54.6728 106.544 54.0903 106.544 53.3413C106.544 53.1749 106.544 53.0085 106.544 52.9253C106.544 52.7588 106.544 52.6756 106.544 52.5092C106.544 52.0931 106.544 51.9267 106.544 51.8434C106.544 51.5106 106.544 51.4274 106.461 50.6784C106.212 48.8477 106.378 47.2666 106.961 45.8519C108.042 43.3554 109.956 41.7743 112.536 41.1918C115.865 40.4429 119.11 41.7743 121.024 44.6037C122.189 46.268 122.605 48.1819 122.272 50.1791C122.189 50.512 122.106 51.0113 122.439 51.4274C122.772 51.8434 123.271 51.8434 123.604 51.8434H127.016C130.178 51.8434 133.423 51.8434 136.585 51.8434C136.752 51.8434 137.251 51.8434 137.584 51.5106C137.917 51.1777 137.917 50.7616 137.917 50.512C137.917 49.9295 137.917 49.4302 137.917 48.8477C138 48.0155 138 47.433 138 46.7673ZM36.3935 44.2708C35.1453 44.2708 33.9803 44.2708 32.732 44.2708C32.1495 44.2708 31.7334 43.7715 31.8167 43.3554C31.8167 42.8561 32.3159 42.4401 32.8985 42.4401C33.481 42.4401 34.0635 42.4401 34.5628 42.4401C35.1453 42.4401 35.811 42.4401 36.3935 42.4401C36.8928 42.4401 37.2257 42.7729 37.2257 43.2722C37.2257 43.7715 36.8928 44.2708 36.3935 44.2708ZM104.048 49.347H58.2793V48.598H104.048V49.347ZM30.0691 4.7433V3.99436H117.196V4.7433H30.0691ZM117.612 27.1284H116.78V6.49083H117.612V27.1284ZM129.262 37.2807C128.43 37.2807 127.764 36.615 127.764 35.7828C127.764 34.9506 128.43 34.2849 129.262 34.2849C130.095 34.2849 130.76 34.9506 130.76 35.7828C130.76 36.615 130.095 37.2807 129.262 37.2807Z" fill="#1E1E1C"/>
<path d="M50.7898 48.8477C50.7898 47.433 49.4584 46.1016 48.0437 46.1016C46.213 46.1016 45.048 47.3498 45.048 49.0973C45.048 50.5952 46.3794 51.8435 47.8773 51.8435C49.5416 51.8435 50.7898 50.5952 50.7898 48.8477ZM46.6291 49.0141C46.6291 48.3484 47.2116 47.6827 47.8773 47.6827C48.6262 47.6827 49.2087 48.2652 49.2087 48.9309C49.2087 49.6798 48.6262 50.2624 47.9605 50.2624C47.2116 50.2624 46.6291 49.6798 46.6291 49.0141Z" fill="#1E1E1C"/>
<path d="M44.3822 50.0959C43.9662 50.0959 43.6333 50.4288 43.6333 50.9281C43.6333 51.3442 43.9662 51.7603 44.3822 51.7603C44.7151 51.7603 45.1312 51.3442 45.2144 51.0113C45.2144 50.5952 44.7983 50.0959 44.3822 50.0959Z" fill="#1E1E1C"/>
<path d="M50.0409 46.5176C50.457 46.5176 50.8731 46.1848 50.8731 45.7687C50.8731 45.2694 50.5402 44.9365 50.0409 44.9365C49.6248 44.9365 49.292 45.3526 49.292 45.7687C49.292 46.1848 49.6248 46.5176 50.0409 46.5176Z" fill="#1E1E1C"/>
<path d="M51.9549 50.5952C52.2878 50.5952 52.6206 50.0959 52.6206 49.763C52.6206 49.2637 52.2878 48.9308 51.7885 48.9308C51.2059 48.9308 51.0395 49.3469 50.9563 49.6798C51.0395 50.2623 51.4556 50.5952 51.9549 50.5952Z" fill="#1E1E1C"/>
<path d="M48.7927 52.1763C48.2934 52.1763 47.9605 52.5091 47.9605 53.0084C47.9605 53.4245 48.2934 53.6742 48.7927 53.6742C49.1255 53.6742 49.6248 53.2581 49.6248 53.0084C49.6248 52.5923 49.292 52.1763 48.7927 52.1763Z" fill="#1E1E1C"/>
<path d="M45.2144 46.8505C45.6305 46.8505 45.9633 46.5176 45.9633 46.0183C45.9633 45.519 45.6305 45.1862 45.2144 45.1862C44.7983 45.1862 44.4655 45.6022 44.4655 46.0183C44.3822 46.4344 44.7983 46.8505 45.2144 46.8505Z" fill="#1E1E1C"/>
<path d="M121.274 49.0973C121.274 45.0198 118.195 41.9408 114.2 41.8576C110.289 41.7743 106.961 44.9365 106.961 49.0141C106.961 51.8435 108.708 54.3399 111.205 55.505H50.7067C53.2031 54.4231 54.9507 52.0099 55.0339 49.0973C55.0339 45.0198 51.9549 41.9408 47.9605 41.8576C44.0494 41.7743 40.7208 44.9365 40.7208 49.0141C40.7208 51.8435 42.4683 54.3399 44.9648 55.505H32.4824V57.1693H127.848V55.505H116.946C119.443 54.4231 121.19 52.0099 121.274 49.0973ZM109.041 48.9309C109.124 46.1848 111.371 43.7715 114.367 43.8547C117.196 43.938 119.276 46.1848 119.36 48.7645C119.443 51.8435 116.78 54.1735 114.2 54.0071C111.288 54.0903 108.958 51.677 109.041 48.9309ZM42.8012 48.9309C42.8844 46.1848 45.1312 43.7715 48.127 43.8547C50.9563 43.938 53.0367 46.1848 53.1199 48.7645C53.2031 51.8435 50.5402 54.1735 47.9605 54.0071C45.048 54.0903 42.7179 51.677 42.8012 48.9309Z" fill="#1E1E1C"/>
<path d="M117.03 48.8477C117.03 47.433 115.698 46.1016 114.284 46.1016C112.453 46.1016 111.288 47.3498 111.288 49.0973C111.288 50.5952 112.619 51.8435 114.117 51.8435C115.781 51.8435 117.03 50.5952 117.03 48.8477ZM112.869 49.0141C112.869 48.3484 113.451 47.6827 114.117 47.6827C114.866 47.6827 115.449 48.2652 115.449 48.9309C115.449 49.6798 114.866 50.2624 114.2 50.2624C113.451 50.2624 112.869 49.6798 112.869 49.0141Z" fill="#1E1E1C"/>
<path d="M110.622 50.0959C110.206 50.0959 109.873 50.4288 109.873 50.9281C109.873 51.3442 110.206 51.7603 110.622 51.7603C110.955 51.7603 111.371 51.3442 111.454 51.0113C111.454 50.5952 110.955 50.0959 110.622 50.0959Z" fill="#1E1E1C"/>
<path d="M116.281 46.5176C116.697 46.5176 117.113 46.1848 117.113 45.7687C117.113 45.2694 116.78 44.9365 116.281 44.9365C115.865 44.9365 115.532 45.3526 115.532 45.7687C115.532 46.1848 115.865 46.5176 116.281 46.5176Z" fill="#1E1E1C"/>
<path d="M118.195 50.5952C118.528 50.5952 118.86 50.0959 118.86 49.763C118.86 49.2637 118.528 48.9308 118.028 48.9308C117.446 48.9308 117.279 49.3469 117.196 49.6798C117.279 50.2623 117.695 50.5952 118.195 50.5952Z" fill="#1E1E1C"/>
<path d="M115.032 52.1763C114.533 52.1763 114.2 52.5091 114.2 53.0084C114.2 53.4245 114.533 53.6742 115.032 53.6742C115.365 53.6742 115.865 53.2581 115.865 53.0084C115.865 52.5923 115.532 52.1763 115.032 52.1763Z" fill="#1E1E1C"/>
<path d="M111.454 46.8505C111.87 46.8505 112.203 46.5176 112.203 46.0183C112.203 45.519 111.87 45.1862 111.454 45.1862C111.038 45.1862 110.705 45.6022 110.705 46.0183C110.622 46.4344 111.038 46.8505 111.454 46.8505Z" fill="#1E1E1C"/>
</svg>
