<svg width="138" height="56" viewBox="0 0 138 56" fill="none" xmlns="http://www.w3.org/2000/svg">
<path d="M138 46.6944C138 45.6142 137.669 45.1988 136.757 45.1157C136.757 44.6172 136.757 44.0356 136.757 43.5371V42.9555C136.757 42.5401 136.757 42.5401 136.84 42.457C137.337 42.1246 137.503 41.543 137.586 41.1276C137.669 40.2967 137.751 39.3828 137.669 38.5519C137.669 38.1365 137.586 37.2226 136.757 36.5579C136.757 36.2255 136.757 35.9763 136.757 35.6439C136.757 34.9792 136.757 34.3976 136.757 33.7329C136.757 33.2344 136.509 32.6528 136.095 32.3205C135.349 31.7389 134.604 31.1573 133.775 30.4926C133.361 30.1602 132.947 29.911 132.615 29.5786C131.041 28.3323 129.467 27.0861 127.893 25.8398C127.893 25.8398 127.811 25.7567 127.811 25.5905C127.148 23.8457 126.568 22.0178 125.905 20.1899C125.408 18.7774 124.911 17.2819 124.414 15.8694C123.834 14.2908 123.337 12.7122 122.757 11.1335C122.426 10.0534 122.012 9.05638 121.68 7.97626C121.101 6.23145 120.438 4.48665 119.858 2.74184C119.609 1.91098 119.112 1.57863 118.201 1.57863H101.633C90.4497 1.57863 79.2663 1.57863 68.0828 1.57863C67.2544 1.57863 67.1716 1.41246 67.0059 1.08012C66.8402 0.498516 66.1775 0 65.5148 0C63.7751 0 62.0355 0 60.2959 0C57.9763 0 55.6568 0 53.3373 0C52.2604 0 51.5976 0.41543 51.1834 1.32938C51.1006 1.49555 51.1006 1.57863 50.7692 1.57863C44.8047 1.57863 33.3728 1.57863 29.7278 1.57863C29.1479 1.57863 28.6509 1.74481 28.3195 2.16024C27.8225 2.49258 27.6568 2.9911 27.6568 3.40653C27.7396 7.727 27.8225 24.0119 27.8225 27.5015C27.4083 27.5015 27.1598 27.6677 26.9941 27.7507C26.5799 28.1662 26.5799 28.7478 26.5799 28.997C26.5799 30.4095 26.5799 31.7389 26.5799 33.0682C26.5799 33.4006 26.5799 33.8991 26.9941 34.3145C27.2426 34.4807 27.4911 34.6469 27.8225 34.6469C27.8225 34.9792 27.8225 35.3947 27.8225 35.8101C27.4911 35.8101 27.2426 35.8932 27.0769 36.0593C26.5799 36.4748 26.5799 37.0564 26.6627 37.3056C26.6627 38.635 26.6627 39.9644 26.6627 41.3769C26.6627 41.7923 26.6627 42.2908 26.9941 42.6231C27.2426 42.8724 27.574 42.9555 27.9053 42.9555V43.1217C27.9053 43.7864 27.9053 44.451 27.9053 45.1157C27.6568 45.1157 27.4911 45.1157 27.2426 45.1157H26.8284C26.3314 45.1157 26 45.4481 26 45.9466V50.7656C26 51.181 26.3314 51.5964 26.7456 51.5964C26.9112 51.5964 28.4852 51.5964 33.0414 51.5964C34.9467 51.5964 36.8521 51.5964 37.7633 51.5964C37.7633 52.0119 37.7633 52.095 37.7633 52.2611C37.7633 52.3442 37.7633 52.5935 37.7633 53.092C37.7633 53.5905 37.929 53.9228 38.1775 54.1721C38.3432 54.3383 38.6746 54.5045 39.1716 54.5045C39.7515 54.5045 40.497 54.089 40.4142 53.0089C40.4142 52.5104 40.4142 52.178 40.4142 51.9288C40.4142 51.3472 40.4142 51.181 40.3314 49.9347C40.0828 46.9436 40.9941 44.5341 43.0651 42.7062C45.4675 40.6291 48.7811 40.1306 51.6805 41.4599C52.6746 41.9585 53.5858 42.6231 54.4142 43.6202C55.9053 45.365 56.4852 47.276 56.3195 49.4362V49.6024C56.2367 50.3501 56.2367 50.9318 56.5681 51.3472C56.9823 51.7626 57.4793 51.7626 58.3905 51.7626H103.953C103.953 52.4273 103.953 52.4273 103.953 52.5935C103.953 52.6766 103.953 52.7596 103.953 53.2582C103.953 53.7567 104.201 54.089 104.367 54.2552C104.533 54.4214 104.781 54.5875 105.195 54.5875C105.278 54.5875 105.278 54.5875 105.361 54.5875C106.107 54.5044 106.604 53.9229 106.604 53.1751C106.604 53.092 106.604 52.9258 106.604 52.7596C106.604 52.178 106.686 51.3472 106.521 50.5163C106.272 48.6884 106.438 47.1098 107.018 45.6973C108.095 43.2047 110 41.6261 112.568 41.0445C115.882 40.2967 119.112 41.6261 121.018 44.451C122.178 46.1128 122.592 48.0237 122.26 50.0178C122.178 50.3502 122.095 50.8487 122.426 51.2641C122.757 51.6795 123.254 51.6795 123.586 51.6795H126.982C130.13 51.6795 133.361 51.6795 136.509 51.6795C136.675 51.6795 137.172 51.6795 137.503 51.3472C137.834 51.0148 137.834 50.5994 137.834 50.3501C137.834 49.7685 137.834 49.27 137.834 48.6884C138 48.0237 138 47.3591 138 46.6944ZM136.343 48.6884C136.343 49.1039 136.343 49.5193 136.343 50.0178C133.278 50.0178 130.213 50.0178 127.148 50.0178H124C124.331 47.6914 123.751 45.5312 122.426 43.5371C120.107 40.1306 116.213 38.5519 112.237 39.4659C109.089 40.2137 106.852 42.0415 105.527 45.0326C104.781 46.6113 104.615 48.3561 104.781 50.2671C104.533 50.184 104.284 50.184 103.953 50.184H73.5503H58.3905C58.2249 50.184 58.0592 50.184 57.8935 50.184C57.8935 50.1009 57.8935 49.9347 57.8935 49.8516V49.6855C58.142 47.0267 57.3965 44.7003 55.6568 42.6231C54.6627 41.4599 53.5858 40.6291 52.3432 40.0475C48.8639 38.4688 44.7219 39.0504 41.9053 41.543C39.503 43.7033 38.3432 46.5282 38.5917 50.0178C38.426 49.9347 38.2604 49.9347 38.0947 49.9347C37.432 49.9347 35.2781 49.9347 32.9586 49.9347C31.0533 49.9347 28.7337 49.9347 27.574 49.9347V46.7774C27.7396 46.7774 27.9053 46.7774 28.071 46.7774C28.4852 46.7774 28.8166 46.6944 29.0651 46.4451C29.3136 46.1958 29.3964 45.8635 29.3964 45.4481C29.3964 44.7003 29.3964 43.8694 29.3964 43.1217V42.6231C29.3964 42.2077 29.3136 41.8754 28.9822 41.6261C28.7337 41.3769 28.4852 41.2938 28.071 41.2938C28.071 40.0475 28.071 38.8012 28.071 37.4718C28.3195 37.4718 28.6509 37.3887 28.8166 37.2226C29.0651 36.9733 29.2308 36.6409 29.3136 36.2255C29.3136 35.4777 29.3136 34.8131 29.3136 34.1484C29.3136 33.816 29.1479 33.4837 28.8994 33.2344C28.7337 33.0682 28.4852 32.9852 28.071 32.9021C28.071 31.6558 28.071 30.4095 28.071 29.1632C28.4024 29.1632 28.6509 29.0801 28.8994 28.8309C29.3964 28.4154 29.3964 27.8338 29.3964 27.5846C29.5621 24.5935 29.3964 7.81009 29.3964 3.32344C29.4793 3.24036 29.5621 3.24036 29.645 3.24036C33.2899 3.24036 44.7219 3.24036 50.6864 3.24036C51.5976 3.24036 52.2604 2.82493 52.5917 1.99407C52.7574 1.74481 52.7574 1.66172 53.1716 1.66172C55.4911 1.66172 57.8107 1.66172 60.213 1.66172C61.9527 1.66172 63.6095 1.66172 65.3491 1.66172C65.929 3.24036 67.2544 3.24036 67.9172 3.24036C79.1006 3.24036 90.284 3.24036 101.467 3.24036H118.036C118.615 4.98516 119.278 6.72997 119.858 8.47478C120.189 9.5549 120.604 10.5519 120.935 11.632C121.515 13.2107 122.012 14.7893 122.592 16.368C123.089 17.7804 123.586 19.276 124.083 20.6884C124.663 22.5163 125.325 24.2611 125.988 26.089C126.071 26.3383 126.237 26.7537 126.651 27.003C128.225 28.2493 129.799 29.4955 131.456 30.7418C131.87 31.0742 132.284 31.3234 132.615 31.6558C133.361 32.2374 134.107 32.819 134.852 33.4006C134.852 33.4006 134.935 33.5668 134.935 33.6499C134.935 34.2315 134.935 34.8131 134.935 35.4777C134.935 35.8101 134.935 36.2255 134.935 36.5579C134.935 36.9733 135.101 37.3887 135.515 37.638C135.68 37.7211 135.846 37.8872 135.846 38.4688C135.929 39.2166 135.846 39.8813 135.763 40.7122C135.763 40.7953 135.68 40.8783 135.763 40.8783C134.935 41.4599 134.935 42.2908 134.935 42.7893V43.3709C134.935 44.0356 134.935 44.6172 134.935 45.1988C134.935 45.365 134.935 45.8635 135.266 46.1958C135.598 46.5282 136.012 46.5282 136.26 46.5282C136.343 47.3591 136.343 48.0237 136.343 48.6884Z" fill="#272525"/>
<path d="M48.3669 41.7923C44.4734 41.7092 41.1598 44.8664 41.1598 48.9377C41.2426 52.7596 44.2249 56 48.284 56C52.0947 56 55.2426 53.0089 55.3255 49.0207C55.4083 44.8664 52.2604 41.7923 48.3669 41.7923ZM48.284 54.0059C45.4675 54.0059 43.148 51.5964 43.2308 48.8546C43.3136 46.1127 45.5503 43.7032 48.5326 43.7863C51.3491 43.8694 53.4201 46.1127 53.503 48.6884C53.503 51.7626 50.8521 54.089 48.284 54.0059Z" fill="#272525"/>
<path d="M48.4497 46.0297C46.6272 46.0297 45.4675 47.276 45.4675 49.0208C45.4675 50.5163 46.7929 51.7626 48.284 51.7626C50.0237 51.7626 51.1834 50.5163 51.1834 48.7715C51.1834 47.359 49.858 46.0297 48.4497 46.0297ZM48.3669 50.184C47.6213 50.184 47.0414 49.6024 47.0414 48.9377C47.0414 48.273 47.6213 47.6083 48.284 47.6083C49.0296 47.6083 49.6095 48.1899 49.6095 48.8546C49.5266 49.5193 49.0296 50.184 48.3669 50.184Z" fill="#272525"/>
<path d="M44.8047 50.0178C44.3905 50.0178 44.0591 50.3502 44.0591 50.8487C44.0591 51.2641 44.3905 51.6795 44.8047 51.6795C45.1361 51.6795 45.5503 51.2641 45.6331 50.9318C45.5503 50.5163 45.1361 50.0178 44.8047 50.0178Z" fill="#272525"/>
<path d="M50.4379 44.8665C50.0237 44.8665 49.6923 45.2819 49.6923 45.6973C49.6923 46.1127 50.0237 46.4451 50.4379 46.5282C50.8521 46.5282 51.2663 46.1958 51.2663 45.7804C51.2663 45.1988 50.9349 44.8665 50.4379 44.8665Z" fill="#272525"/>
<path d="M51.4319 49.6855C51.4319 50.184 51.8461 50.5163 52.3432 50.5163C52.6745 50.5163 53.0059 50.0178 53.0059 49.6855C53.0059 49.187 52.6745 48.8546 52.1775 48.8546C51.6805 48.9377 51.4319 49.27 51.4319 49.6855Z" fill="#272525"/>
<path d="M49.1953 52.095C48.6982 52.095 48.3669 52.4273 48.3669 52.9258C48.3669 53.3413 48.6982 53.5905 49.1953 53.5905C49.5266 53.5905 50.0237 53.1751 50.0237 52.9258C50.0237 52.5104 49.6923 52.095 49.1953 52.095Z" fill="#272525"/>
<path d="M45.6331 46.7774C46.0473 46.7774 46.3787 46.4451 46.3787 45.9466C46.3787 45.4481 46.0473 45.1157 45.6331 45.1157C45.2189 45.1157 44.8876 45.5312 44.8876 45.9466C44.8047 46.362 45.2189 46.7774 45.6331 46.7774Z" fill="#272525"/>
<path d="M114.308 41.7923C110.414 41.7092 107.101 44.8664 107.101 48.9377C107.183 52.7596 110.166 56 114.225 56C118.035 56 121.183 53.0089 121.266 49.0207C121.349 44.8664 118.201 41.7923 114.308 41.7923ZM114.225 54.0059C111.408 54.0059 109.089 51.5964 109.172 48.8546C109.254 46.1127 111.491 43.7032 114.473 43.7863C117.29 43.8694 119.361 46.1127 119.444 48.6884C119.444 51.7626 116.793 54.089 114.225 54.0059Z" fill="#272525"/>
<path d="M114.391 46.0297C112.568 46.0297 111.408 47.276 111.408 49.0208C111.408 50.5163 112.734 51.7626 114.225 51.7626C115.964 51.7626 117.124 50.5163 117.124 48.7715C117.124 47.359 115.799 46.0297 114.391 46.0297ZM114.225 50.184C113.479 50.184 112.899 49.6024 112.899 48.9377C112.899 48.273 113.479 47.6083 114.142 47.6083C114.888 47.6083 115.467 48.1899 115.467 48.8546C115.467 49.5193 114.97 50.184 114.225 50.184Z" fill="#272525"/>
<path d="M110.663 50.0178C110.249 50.0178 109.917 50.3502 109.917 50.8487C109.917 51.2641 110.249 51.6795 110.663 51.6795C110.994 51.6795 111.408 51.2641 111.491 50.9318C111.491 50.5163 111.077 50.0178 110.663 50.0178Z" fill="#272525"/>
<path d="M116.379 44.8665C115.964 44.8665 115.633 45.2819 115.633 45.6973C115.633 46.1127 115.964 46.4451 116.379 46.5282C116.793 46.5282 117.207 46.1958 117.207 45.7804C117.207 45.1988 116.876 44.8665 116.379 44.8665Z" fill="#272525"/>
<path d="M117.373 49.6855C117.373 50.184 117.787 50.5163 118.284 50.5163C118.615 50.5163 118.947 50.0178 118.947 49.6855C118.947 49.187 118.615 48.8546 118.118 48.8546C117.538 48.9377 117.373 49.27 117.373 49.6855Z" fill="#272525"/>
<path d="M115.136 52.095C114.639 52.095 114.308 52.4273 114.308 52.9258C114.308 53.3413 114.639 53.5905 115.136 53.5905C115.467 53.5905 115.964 53.1751 115.964 52.9258C115.964 52.5104 115.633 52.095 115.136 52.095Z" fill="#272525"/>
<path d="M111.574 46.7774C111.988 46.7774 112.32 46.4451 112.32 45.9466C112.32 45.4481 111.988 45.1157 111.574 45.1157C111.16 45.1157 110.828 45.5312 110.828 45.9466C110.746 46.362 111.16 46.7774 111.574 46.7774Z" fill="#272525"/>
</svg>
