<svg width="19" height="19" viewBox="0 0 19 19" fill="none" xmlns="http://www.w3.org/2000/svg">
<path d="M19 0H0V19H19V0Z" fill="#AEC45C"/>
<path d="M6.2079 11.5696L6.30196 12.1339L6.39602 11.5696L8.08909 6.30225H9.40592L6.77225 13.5448H5.7376L3.198 6.30225H4.51483L6.2079 11.5696Z" fill="white"/>
<path d="M15.614 12.5098C15.4258 12.792 15.1437 13.0742 14.6734 13.2623C14.2031 13.4504 13.6387 13.6385 12.9803 13.6385C12.1338 13.6385 11.3813 13.3563 10.911 12.792C10.3466 12.2276 10.0645 11.5692 10.0645 10.6286V9.12367C10.0645 8.27714 10.3466 7.52466 10.911 6.9603C11.4753 6.39595 12.1338 6.11377 12.9803 6.11377C13.8268 6.11377 14.4852 6.30189 14.9555 6.77219C15.4258 7.24248 15.614 7.71278 15.614 8.46525H14.4852C14.4852 8.08902 14.3912 7.71278 14.109 7.52466C13.8268 7.24248 13.4506 7.14842 12.9803 7.14842C12.51 7.14842 12.0397 7.33654 11.7575 7.71278C11.3813 8.08902 11.2872 8.55931 11.2872 9.12367V10.6286C11.2872 11.193 11.4753 11.6633 11.7575 12.0395C12.0397 12.4157 12.51 12.6039 12.9803 12.6039C13.3565 12.6039 13.6387 12.6039 13.9209 12.5098C14.109 12.4157 14.2971 12.3217 14.3912 12.2276V10.7227H12.8862V9.78209H15.614V12.5098Z" fill="white"/>
</svg>
