<svg width="21" height="20" viewBox="0 0 21 20" fill="none" xmlns="http://www.w3.org/2000/svg">
<path d="M18.9668 0H1.90786C1.62509 0 1.3539 0.11665 1.15395 0.324289C0.954005 0.531928 0.841675 0.813547 0.841675 1.10719L0.841675 18.8223C0.841675 19.1159 0.954005 19.3975 1.15395 19.6052C1.3539 19.8128 1.62509 19.9295 1.90786 19.9295H11.0877V12.1791H8.59284V9.20077H11.0877V6.98638C11.0366 6.46083 11.0969 5.93002 11.2642 5.43121C11.4316 4.9324 11.7021 4.47767 12.0567 4.09892C12.4112 3.72016 12.8413 3.42657 13.3167 3.23873C13.7921 3.05089 14.3014 2.97335 14.8087 3.01156C15.5564 3.00937 16.3036 3.04632 17.0477 3.12228V5.81276H15.5124C14.3076 5.81276 14.0837 6.41064 14.0837 7.28533V9.20077H16.9411L16.5679 12.1791H14.0837V19.9295H18.9668C19.2496 19.9295 19.5208 19.8128 19.7207 19.6052C19.9207 19.3975 20.033 19.1159 20.033 18.8223V1.10719C20.033 0.813547 19.9207 0.531928 19.7207 0.324289C19.5208 0.11665 19.2496 0 18.9668 0V0Z" fill="#272525"/>
</svg>
