<svg width="21" height="20" viewBox="0 0 21 20" fill="none" xmlns="http://www.w3.org/2000/svg">
<path fill-rule="evenodd" clip-rule="evenodd" d="M18.2221 8.41912H16.4929C16.618 8.92121 16.6833 9.43635 16.6874 9.95379C16.6874 11.579 16.0418 13.1377 14.8926 14.2869C13.7434 15.4361 12.1847 16.0817 10.5595 16.0817C8.93428 16.0817 7.37563 15.4361 6.22642 14.2869C5.07722 13.1377 4.4316 11.579 4.4316 9.95379C4.43394 9.43554 4.50296 8.91975 4.63695 8.41912H2.90773V16.849C2.9063 16.9493 2.92481 17.0488 2.96219 17.1419C2.99956 17.2349 3.05506 17.3196 3.12546 17.391C3.19585 17.4624 3.27973 17.5191 3.37223 17.5578C3.46473 17.5965 3.564 17.6164 3.66426 17.6164H17.4548C17.6583 17.6164 17.8534 17.5355 17.9973 17.3916C18.1412 17.2477 18.2221 17.0525 18.2221 16.849V8.41912ZM18.2221 3.01532C18.2221 2.91505 18.2022 2.81579 18.1635 2.72329C18.1248 2.63079 18.0681 2.54691 17.9967 2.47651C17.9253 2.40612 17.8406 2.35062 17.7476 2.31324C17.6545 2.27587 17.555 2.25735 17.4548 2.25879H15.1527C14.9521 2.25879 14.7597 2.33849 14.6178 2.48037C14.4759 2.62225 14.3962 2.81467 14.3962 3.01532V5.4038C14.3948 5.50405 14.4133 5.60359 14.4507 5.69663C14.488 5.78967 14.5435 5.87435 14.6139 5.94575C14.6843 6.01714 14.7682 6.07384 14.8607 6.11253C14.9532 6.15123 15.0525 6.17115 15.1527 6.17114H17.4548C17.5555 6.17114 17.6553 6.15129 17.7484 6.11273C17.8415 6.07416 17.9261 6.01764 17.9973 5.94639C18.0686 5.87513 18.1251 5.79054 18.1637 5.69744C18.2022 5.60435 18.2221 5.50456 18.2221 5.4038V3.01532ZM10.5595 6.12791C9.80022 6.12791 9.05801 6.3532 8.42683 6.77526C7.79566 7.19732 7.30391 7.79717 7.01384 8.49887C6.72377 9.20056 6.64842 9.97255 6.79734 10.7171C6.94626 11.4616 7.31274 12.1452 7.8504 12.6814C8.38805 13.2175 9.07269 13.5821 9.81765 13.7289C10.5626 13.8757 11.3344 13.7982 12.0353 13.5061C12.7361 13.2141 13.3346 12.7206 13.7549 12.0883C14.1751 11.4559 14.3983 10.7131 14.3962 9.95379C14.3933 8.93811 13.9879 7.96501 13.2686 7.24782C12.5494 6.53064 11.5752 6.1279 10.5595 6.12791ZM18.2221 19.9184H2.90773C2.2972 19.9184 1.71167 19.6759 1.27996 19.2441C0.848246 18.8124 0.605713 18.2269 0.605713 17.6164L0.605713 2.30202C0.605713 1.69148 0.848246 1.10596 1.27996 0.674245C1.71167 0.242533 2.2972 0 2.90773 0L18.2221 0C18.8326 0 19.4181 0.242533 19.8499 0.674245C20.2816 1.10596 20.5241 1.69148 20.5241 2.30202V17.6164C20.5213 18.226 20.2778 18.8099 19.8467 19.241C19.4156 19.6721 18.8317 19.9156 18.2221 19.9184Z" fill="#272525"/>
</svg>
