<svg width="30" height="20" viewBox="0 0 30 20" fill="none" xmlns="http://www.w3.org/2000/svg">
<path d="M27.5238 6.87661C27.3591 6.71192 27.1944 6.54724 27.0297 6.38255C27.7708 5.55911 28.5942 4.73568 29.3353 3.8299C29.253 3.8299 29.1706 3.8299 29.0883 3.8299C27.4414 3.8299 25.7945 3.8299 24.1477 3.8299C24.0653 3.8299 23.983 3.8299 23.9006 3.74756C20.3599 1.44194 16.4897 0.536162 12.2902 1.19491C9.9846 1.44194 7.76132 2.34772 5.78508 3.66521C5.70274 3.74756 5.53805 3.74756 5.45571 3.74756C3.80884 3.74756 2.16197 3.74756 0.515097 3.74756C0.432753 3.74756 0.432753 3.74756 0.268066 3.74756C1.0915 4.65334 1.83259 5.47677 2.65603 6.30021C1.25619 7.78239 0.432753 9.42926 0.35041 11.4878C0.268066 13.5464 1.00916 15.2756 2.409 16.7578C5.12633 19.5575 9.73757 19.7222 12.5372 17.0872C13.2783 17.9106 14.1018 18.7341 14.8429 19.6399C15.584 18.8164 16.4074 17.993 17.1485 17.0872C17.1485 17.0872 17.1485 17.0872 17.2308 17.0872L17.3132 17.1695C19.1247 18.7341 21.1833 19.3105 23.5713 18.8164C27.5238 18.0753 30.1588 14.0405 29.253 10.088C28.9236 8.9352 28.3472 7.86473 27.5238 6.87661ZM7.59664 16.5931C4.8793 16.5931 2.73837 14.3699 2.73837 11.6525C2.73837 8.9352 4.96165 6.79427 7.59664 6.79427C10.314 6.79427 12.4549 9.01754 12.4549 11.7349C12.5372 14.4522 10.314 16.6755 7.59664 16.5931ZM15.7486 8.27645C15.2546 9.18223 14.9252 10.1704 14.9252 11.0761C14.8429 10.6644 14.7605 10.2527 14.6782 9.84098C14.5958 9.42926 14.4311 9.01754 14.2665 8.60582C14.0194 8.27645 13.7724 7.86473 13.5254 7.53536C13.2783 7.20598 13.0313 6.87661 12.7019 6.54724C12.3726 6.21786 12.0432 5.97083 11.7138 5.7238C11.3844 5.47677 10.9727 5.22974 10.6433 5.06505C10.2316 4.81802 9.90226 4.65334 9.49054 4.48865C13.1137 3.08881 16.6544 3.08881 20.2775 4.48865C20.1128 4.57099 19.9482 4.65334 19.7835 4.65334C18.0543 5.39443 16.6544 6.54724 15.7486 8.27645ZM22.0891 16.5931C19.3718 16.5931 17.2308 14.3699 17.2308 11.6525C17.2308 9.01754 19.4541 6.79427 22.0891 6.79427C24.8064 6.79427 26.9474 9.01754 26.9474 11.7349C27.0297 14.4522 24.8064 16.5931 22.0891 16.5931Z" fill="#272525"/>
<path d="M24.7241 11.7349C24.7241 13.1347 23.5713 14.2875 22.1714 14.2875C20.7716 14.2875 19.6188 13.1347 19.6188 11.7349C19.6188 10.335 20.7716 9.18222 22.2538 9.18222C23.5713 9.18222 24.7241 10.335 24.7241 11.7349Z" fill="#272525"/>
<path d="M5.04395 11.7349C5.04395 10.335 6.19675 9.18222 7.59659 9.18222C8.99643 9.18222 10.1492 10.335 10.1492 11.7349C10.1492 13.1347 8.99643 14.2875 7.59659 14.2875C6.19675 14.2875 5.04395 13.1347 5.04395 11.7349Z" fill="#272525"/>
</svg>
