<svg width="41" height="16" viewBox="0 0 41 16" fill="none" xmlns="http://www.w3.org/2000/svg">
<path d="M20.2758 15.6672C20.0978 15.6389 19.9198 15.6167 19.7438 15.5845C19.1812 15.4776 18.6513 15.2921 18.1542 15.0038C17.5936 14.6772 17.2806 14.1953 17.1681 13.5722C17.0146 12.7254 16.9962 11.8725 17.0637 11.0156C17.1435 9.98732 17.344 8.98524 17.7 8.01541C17.9025 7.46295 18.1583 6.93469 18.4795 6.43667C18.7986 5.94269 19.259 5.68864 19.842 5.61807C20.4128 5.54952 20.9796 5.59589 21.5401 5.69065C21.9514 5.76122 22.3585 5.858 22.7636 5.96083C23.6045 6.17254 24.1241 6.70887 24.3614 7.52344C24.3696 7.55167 24.3798 7.58191 24.388 7.61014C24.3901 7.61619 24.3962 7.62022 24.4064 7.63434C24.4903 7.60006 24.5783 7.56578 24.6663 7.52949C25.6381 7.1222 26.4298 6.48305 27.0968 5.68864C27.1643 5.60799 27.1664 5.46886 27.1889 5.35595C27.4732 3.83165 27.7945 2.3134 28.2343 0.823381C28.2691 0.704422 28.3182 0.589494 28.3734 0.4786C28.4594 0.311249 28.6067 0.226566 28.7949 0.218501C29.4639 0.190273 30.1022 0.317298 30.7017 0.611673C31.1579 0.835479 31.2725 1.09356 31.162 1.59158C30.8469 3.03523 30.3866 4.43452 29.826 5.80357C29.736 6.02334 29.7033 6.26932 29.6624 6.50523C29.5232 7.31173 29.38 8.11623 29.2593 8.92475C29.1591 9.60423 29.0711 10.2857 29.0056 10.9692C28.934 11.7173 28.887 12.4673 28.844 13.2154C28.8317 13.4251 28.8665 13.6348 28.8849 13.8465C28.889 13.8848 28.9054 13.9231 28.9197 13.9614C28.9954 14.1489 29.1222 14.2215 29.3166 14.159C29.4537 14.1146 29.5887 14.0521 29.7115 13.9755C30.1227 13.7174 30.4623 13.3767 30.7897 13.0238C31.428 12.3343 31.9783 11.5822 32.4734 10.7878C32.5409 10.6809 32.5409 10.5317 32.5655 10.4027C32.721 9.56592 32.8744 8.72917 33.0279 7.89242C33.032 7.86621 33.0361 7.84201 33.0401 7.80975C32.9522 7.80975 32.8703 7.80774 32.7885 7.80975C32.4407 7.8158 32.0929 7.82185 31.7451 7.82588C31.698 7.82588 31.6489 7.82588 31.6019 7.81782C31.3461 7.77548 31.2582 7.67265 31.2582 7.41658C31.2602 7.00123 31.3298 6.59798 31.4955 6.21085C31.5978 5.97495 31.7676 5.83381 32.0315 5.83179C32.4837 5.82574 32.9378 5.82574 33.39 5.83179C33.5025 5.83381 33.5434 5.80155 33.5741 5.69469C33.7828 4.95673 34.0222 4.22684 34.3209 3.51712C34.3291 3.49494 34.3372 3.47276 34.3475 3.4526C34.5091 3.0816 34.6646 2.97474 35.0717 3.00095C35.6057 3.03523 36.1315 3.13201 36.6368 3.31549C36.9724 3.43848 37.0706 3.61793 36.9683 3.95868C36.8721 4.2833 36.7514 4.59985 36.645 4.92246C36.5366 5.24909 36.4302 5.57774 36.3197 5.91648C36.5264 5.92857 36.7187 5.93866 36.913 5.95075C37.5902 5.99309 38.2654 6.02939 38.9426 6.07979C39.4459 6.11609 39.9471 6.16851 40.4483 6.2169C40.6018 6.23101 40.745 6.27941 40.8678 6.37619C40.8678 6.44272 40.8678 6.51128 40.8678 6.57781C40.7675 6.64435 40.6754 6.73508 40.565 6.77541C40.297 6.87017 40.0248 6.95889 39.7466 7.01736C38.4802 7.28149 37.1995 7.45086 35.9146 7.58393C35.8553 7.58998 35.8287 7.61014 35.8123 7.67063C35.3479 9.41269 34.9674 11.1709 34.8855 12.9774C34.8692 13.3263 34.8508 13.6751 34.9367 14.0199C35.0288 14.3929 35.2395 14.5199 35.6221 14.4433C35.9658 14.3747 36.2686 14.2195 36.5591 14.034C37.3038 13.5561 37.9176 12.9391 38.4925 12.2818C38.9733 11.7334 39.4049 11.1467 39.8182 10.5458C39.8816 10.4531 39.9635 10.3664 40.0555 10.2998C40.1844 10.2071 40.3235 10.2595 40.3665 10.4107C40.3952 10.5136 40.4136 10.6204 40.4177 10.7273C40.4443 11.558 40.2765 12.3524 39.9573 13.1186C39.7773 13.5481 39.5482 13.9513 39.1676 14.2376C38.1958 14.9736 37.0992 15.4252 35.8839 15.5986C35.7264 15.6208 35.5689 15.6389 35.4113 15.6591C35.1924 15.6591 34.9756 15.6591 34.7567 15.6591C34.7341 15.653 34.7137 15.643 34.6912 15.6389C34.3577 15.6067 34.0344 15.526 33.7296 15.3909C32.8724 15.0119 32.3404 14.3909 32.2586 13.4432C32.2484 13.3263 32.2463 13.2073 32.2402 13.0722C32.2075 13.1125 32.187 13.1388 32.1665 13.1629C31.8044 13.6307 31.4055 14.0662 30.9574 14.4554C30.4725 14.8768 29.9549 15.2518 29.3493 15.4837C29.155 15.5583 28.9483 15.6006 28.7458 15.6571C28.5883 15.6571 28.4328 15.6571 28.2752 15.6571C28.2568 15.651 28.2364 15.6409 28.218 15.6389C27.7269 15.5905 27.2973 15.401 26.8963 15.1228C26.4769 14.8304 26.2784 14.4251 26.2539 13.9332C26.213 13.1105 26.2744 12.2899 26.3419 11.4713C26.3889 10.9007 26.4503 10.3301 26.5178 9.7615C26.5874 9.1667 26.6733 8.5719 26.7531 7.9771C26.7756 7.80975 26.8022 7.6424 26.8288 7.46497C26.8063 7.47505 26.7961 7.47707 26.7879 7.48312C26.1066 8.0517 25.3394 8.46504 24.4924 8.74329C24.4637 8.75337 24.433 8.80176 24.431 8.83402C24.3942 9.27155 24.3758 9.71109 24.3246 10.1466C24.2162 11.0479 23.9911 11.9229 23.6536 12.7678C23.3487 13.5299 22.9641 14.2477 22.4076 14.8647C22.0905 15.2175 21.7243 15.4998 21.2435 15.6006C21.1473 15.6208 21.0512 15.6349 20.955 15.653C20.7259 15.6672 20.5008 15.6672 20.2758 15.6672ZM20.865 7.2331C20.8404 7.27746 20.822 7.30569 20.8077 7.33593C19.8809 9.18081 19.5454 11.1305 19.7459 13.173C19.7745 13.4674 19.8482 13.7537 20.0098 14.0098C20.1898 14.2941 20.462 14.4251 20.7934 14.3546C20.9489 14.3223 21.1105 14.2558 21.2333 14.161C21.4112 14.0239 21.5729 13.8606 21.712 13.6831C22.0966 13.1871 22.3319 12.6145 22.5263 12.0278C22.825 11.1205 22.9805 10.1869 23.0582 9.23929C23.0664 9.13646 23.0684 9.03363 23.0746 8.9308C22.0393 8.74329 21.2558 8.2493 20.865 7.2331Z" fill="#272525"/>
<path d="M2.30083 15.6669C2.08601 15.6185 1.87119 15.5762 1.65637 15.5238C1.54384 15.4955 1.43746 15.4532 1.32902 15.4149C0.835961 15.2395 0.541352 14.9007 0.463608 14.3886C0.369496 13.7716 0.267201 13.1567 0.199687 12.5377C0.121942 11.8199 0.0523818 11.1001 0.0257851 10.3823C-0.00694928 9.47497 -0.00285748 8.56361 0.00737202 7.65427C0.0135097 7.124 0.0564736 6.59573 0.0973916 6.06747C0.156723 5.29524 0.248788 4.52704 0.396093 3.76489C0.477929 3.33946 0.70707 3.00073 1.0651 2.75474C1.7157 2.31116 2.42972 2.02082 3.21943 1.92202C3.26854 1.91597 3.32173 1.91799 3.37288 1.92605C3.55087 1.95227 3.64294 2.043 3.62657 2.21841C3.60816 2.41399 3.56519 2.60755 3.52223 2.80112C3.32787 3.66609 3.17647 4.53511 3.05576 5.41218C2.79389 7.31353 2.67727 9.22495 2.70387 11.1424C2.71614 12.082 2.77752 13.0196 2.81639 13.9571C2.81639 13.9632 2.82048 13.9672 2.82867 13.9833C2.84503 13.9571 2.8614 13.937 2.87163 13.9148C4.31808 11.1444 5.61518 8.30553 6.66677 5.36379C6.83454 4.894 6.98798 4.41816 7.14756 3.94434C7.17211 3.87377 7.19871 3.80723 7.22735 3.73868C7.34397 3.45035 7.55265 3.25679 7.8534 3.16001C8.46103 2.96242 9.08298 2.84547 9.72539 2.84144C9.76222 2.84144 9.80109 2.84144 9.83792 2.84547C10.1816 2.8858 10.3371 3.05517 10.331 3.40398C10.3228 3.78909 10.2942 4.17419 10.2901 4.56132C10.2778 5.76301 10.2655 6.96471 10.2696 8.16439C10.2716 8.77734 10.3023 9.3923 10.3392 10.0052C10.3944 10.9428 10.466 11.8784 10.7279 12.7877C10.7913 13.0115 10.8956 13.2252 10.9898 13.4389C11.0225 13.5136 11.0777 13.5821 11.1309 13.6466C11.3785 13.9491 11.7345 14.0055 12.0679 13.7938C12.3053 13.6426 12.4689 13.4228 12.6122 13.1889C12.9477 12.6385 13.1523 12.0336 13.3262 11.4207C13.5737 10.5456 13.7354 9.6524 13.8622 8.75314C14.0873 7.14617 14.1793 5.52913 14.1773 3.90603C14.1752 2.93016 14.1364 1.95428 14.0484 0.980425C14.0279 0.764684 14.0116 0.544911 14.0238 0.32917C14.0341 0.113429 14.1773 0.00455096 14.3982 0.000518422C14.8483 -0.00754665 15.2861 0.0791529 15.7117 0.214243C16.0145 0.309008 16.3152 0.423935 16.5976 0.56709C17.1438 0.845335 17.4139 1.31311 17.4057 1.91194C17.3955 2.51077 17.3648 3.11162 17.3095 3.70844C17.1725 5.17628 16.8779 6.61791 16.4912 8.03938C16.0963 9.48505 15.6033 10.8944 14.9138 12.2332C14.4882 13.0619 13.9952 13.8483 13.3385 14.5237C12.9068 14.9653 12.4219 15.3363 11.8204 15.5318C11.6383 15.5903 11.446 15.6226 11.2578 15.6669C11.0736 15.6669 10.8895 15.6669 10.7054 15.6669C10.6788 15.6609 10.6542 15.6528 10.6276 15.6468C10.4374 15.6085 10.243 15.5863 10.0589 15.5318C9.32031 15.31 8.80883 14.8201 8.43648 14.1729C8.00275 13.4127 7.79816 12.582 7.68359 11.7271C7.61198 11.1969 7.56288 10.6605 7.53628 10.1262C7.49127 9.21487 7.47286 8.30351 7.44217 7.39216C7.44012 7.35587 7.44217 7.31756 7.44217 7.28126C7.40944 7.30143 7.39921 7.32159 7.39102 7.34175C6.35784 9.89435 5.14463 12.3643 3.83525 14.7898C3.75955 14.931 3.66953 15.0681 3.57337 15.1951C3.40356 15.4189 3.18261 15.5762 2.89823 15.6347C2.85526 15.6427 2.81435 15.6548 2.77138 15.6649C2.61589 15.6669 2.45836 15.6669 2.30083 15.6669Z" fill="#272525"/>
</svg>
